<svg width="1920" height="960" viewBox="0 0 1920 960" fill="none" xmlns="http://www.w3.org/2000/svg">
<rect width="1920" height="960" fill="#D9D9D9"/>
<path d="M890.239 444.892L890.239 844.76L490.371 844.76L490.371 444.892L890.239 444.892Z" fill="#EC6183"/>
<path d="M260.447 267.45L260.447 429.897L98.0002 429.897L98.0002 267.45L260.447 267.45Z" fill="#EC6183"/>
<path d="M1101.59 115L1242.97 256.375L1101.59 397.75L960.217 256.375L1101.59 115Z" fill="#6841F5"/>
<path d="M1712.47 115L1712.47 844.76L1315.1 844.76L1315.1 115L1712.47 115Z" fill="#F4B5DE"/>
<circle cx="1712.47" cy="334.928" r="109.964" fill="url(#paint0_linear_102_7)"/>
<path d="M98 710.225V484.878L440.387 844.76H98V710.225Z" fill="#6841F5"/>
<circle cx="490.371" cy="624.832" r="139.954" fill="#F4B5DE"/>
<circle cx="1102.67" cy="642.326" r="202.433" fill="#F2AA3C"/>
<path fill-rule="evenodd" clip-rule="evenodd" d="M542.854 297.44C542.854 378.875 608.87 444.891 690.305 444.891C771.74 444.891 837.757 378.875 837.757 297.44L542.854 297.44Z" fill="url(#paint1_linear_102_7)"/>
<defs>
<linearGradient id="paint0_linear_102_7" x1="1602.51" y1="334.928" x2="1822.43" y2="334.928" gradientUnits="userSpaceOnUse">
<stop stop-color="#F4B5DE"/>
<stop offset="1" stop-color="#6841F5"/>
</linearGradient>
<linearGradient id="paint1_linear_102_7" x1="690.305" y1="297.44" x2="690.305" y2="444.891" gradientUnits="userSpaceOnUse">
<stop stop-color="#F2AA3C"/>
<stop offset="1" stop-color="#EC6183"/>
</linearGradient>
</defs>
</svg>
