<svg width="1920" height="1080" viewBox="0 0 1920 1080" fill="none" xmlns="http://www.w3.org/2000/svg">
<path fill-rule="evenodd" clip-rule="evenodd" d="M0 449.5V1080H107.917C6.3783 1024.66 226.536 1000.1 464.628 973.533C685.19 948.925 921.142 922.6 931 868.5C945.349 789.754 483.47 626.738 205.016 528.46C85.6566 486.333 0 456.101 0 449.5Z" fill="#BAF5EC"/>
<path d="M107.917 1080H847.237C1176 1048 1840.2 1001.2 1863 896C1877 711.5 593 546 44.5 0.000843727H0L0 449.5C0 456.101 85.6566 486.333 205.016 528.46C483.47 626.738 945.349 789.754 931 868.5C921.142 922.6 685.19 948.925 464.628 973.533C226.536 1000.1 6.3783 1024.66 107.917 1080Z" fill="#FCEF87"/>
<path d="M1863 896C1840.2 1001.2 1176 1048 847.237 1080H1920V515.5C1615.17 415.167 1015.5 0.500576 757 0.500843C498.5 0.50111 44.5 0.000843727 44.5 0.000843727C593 546 1877 711.5 1863 896Z" fill="#F583F5"/>
<path d="M757 0.500843C1015.5 0.500576 1615.17 415.167 1920 515.5V164.501C1803.33 109.501 1570.2 -0.398716 1571 0.00108787C1571.8 0.400892 1028.67 0.500843 757 0.500843Z" fill="#91DCA7"/>
<path d="M1571 0.00108787C1570.2 -0.398716 1803.33 109.501 1920 164.501V0.00109863L1571 0.00108787Z" fill="#FE8A7F"/>
</svg>
