<?xml version="1.0" standalone="no"?>
<!DOCTYPE svg PUBLIC "-//W3C//DTD SVG 20010904//EN"
 "http://www.w3.org/TR/2001/REC-SVG-20010904/DTD/svg10.dtd">
<svg version="1.0" xmlns="http://www.w3.org/2000/svg"
 width="800.000000pt" height="800.000000pt" viewBox="0 0 800.000000 800.000000"
 preserveAspectRatio="xMidYMid meet">
<metadata>
Created by potrace 1.14, written by Peter Selinger 2001-2017
</metadata>
<g transform="translate(0.000000,800.000000) scale(0.100000,-0.100000)"
fill="#000000" stroke="none">
<path d="M3998 7995 c-2 -1 -41 -5 -88 -9 -47 -4 -98 -9 -115 -11 -101 -14
-123 -17 -150 -20 -76 -9 -225 -38 -320 -62 -63 -16 -85 -21 -124 -29 -13 -3
-32 -9 -43 -15 -10 -5 -18 -8 -18 -5 0 3 -39 -9 -87 -25 -49 -16 -89 -29 -90
-29 -4 -1 -31 -9 -50 -17 -10 -3 -22 -7 -28 -9 -5 -1 -23 -8 -40 -15 -16 -6
-34 -13 -40 -15 -15 -4 -146 -59 -191 -80 -21 -10 -41 -19 -44 -19 -9 -1 -234
-117 -315 -163 -175 -100 -438 -281 -549 -377 -6 -5 -43 -37 -81 -70 -138
-118 -316 -295 -425 -425 -19 -23 -43 -51 -53 -63 -11 -12 -51 -65 -90 -117
-40 -52 -75 -96 -79 -98 -5 -2 -8 -8 -8 -14 0 -6 -13 -27 -30 -48 -16 -21 -30
-41 -30 -45 0 -3 -11 -21 -25 -39 -14 -18 -25 -38 -25 -44 0 -6 -4 -12 -8 -14
-11 -4 -132 -211 -132 -226 0 -6 -3 -12 -8 -14 -15 -6 -142 -279 -195 -418
-40 -106 -50 -133 -51 -140 -1 -3 -7 -15 -14 -27 -7 -13 -11 -23 -8 -23 3 0
-8 -38 -24 -84 -15 -47 -26 -87 -22 -90 3 -3 0 -6 -7 -6 -7 0 -10 -3 -8 -8 3
-4 -6 -48 -19 -97 -13 -50 -27 -106 -30 -125 -3 -19 -7 -43 -10 -52 -6 -19
-12 -50 -19 -93 -3 -16 -7 -41 -10 -55 -8 -41 -14 -82 -20 -135 -3 -27 -8 -61
-11 -75 -11 -60 -17 -213 -18 -445 -1 -322 9 -429 71 -789 2 -16 20 -90 39
-165 19 -75 36 -144 39 -154 10 -42 98 -303 105 -312 4 -5 10 -22 14 -37 3
-15 19 -55 35 -90 16 -35 33 -75 36 -90 4 -16 11 -28 16 -28 5 0 9 -4 9 -9 0
-12 82 -183 116 -240 14 -24 37 -66 52 -93 38 -70 44 -80 70 -115 12 -17 22
-34 22 -38 0 -4 12 -24 28 -44 15 -20 32 -43 37 -52 34 -56 81 -119 87 -119 5
0 8 -4 8 -10 0 -5 7 -18 15 -27 8 -10 37 -47 65 -83 124 -158 391 -434 535
-554 39 -32 79 -65 90 -75 58 -48 255 -191 265 -191 5 0 10 -3 10 -8 0 -4 20
-18 45 -32 25 -14 45 -28 45 -31 0 -4 8 -9 18 -12 9 -4 35 -17 57 -31 81 -51
163 -96 280 -154 124 -62 328 -152 346 -152 5 0 17 -4 27 -9 37 -20 126 -51
143 -51 11 0 19 -4 19 -8 0 -5 6 -9 13 -10 13 -1 231 -60 257 -69 17 -7 13 -6
95 -24 33 -7 65 -14 70 -15 9 -3 111 -21 160 -30 41 -6 81 -12 125 -18 25 -3
63 -8 85 -11 105 -14 219 -19 435 -19 255 -1 395 7 535 30 17 3 46 6 65 8 37
4 205 34 230 41 8 2 29 7 45 10 17 3 64 14 105 25 41 12 83 23 94 25 126 29
424 136 584 211 29 13 57 24 62 24 6 0 10 5 10 12 0 6 3 9 6 6 5 -6 189 86
256 129 21 12 40 23 43 23 10 0 300 192 303 201 2 5 10 9 17 9 7 0 15 3 17 8
2 4 30 27 63 52 59 43 75 57 118 94 12 10 42 35 67 55 43 36 55 47 161 147
159 151 339 359 468 539 85 117 244 365 235 365 -3 0 4 16 16 35 29 47 36 158
15 232 -34 117 -103 192 -237 257 -52 25 -98 46 -102 46 -3 0 -39 15 -78 34
-71 33 -112 52 -210 95 -27 12 -68 30 -93 41 -25 11 -66 29 -92 41 -27 12 -77
35 -113 51 -36 16 -83 37 -105 45 -22 9 -44 20 -49 25 -6 4 -18 8 -28 8 -10 0
-18 5 -18 10 0 6 -7 10 -15 10 -8 0 -29 8 -47 18 -18 10 -71 33 -118 51 -68
27 -100 34 -160 34 -99 2 -131 -5 -214 -47 -78 -38 -147 -100 -216 -191 -40
-54 -150 -184 -190 -225 -116 -118 -341 -284 -475 -350 -39 -19 -72 -38 -75
-41 -13 -15 -291 -117 -364 -134 -147 -33 -157 -35 -268 -51 -36 -5 -211 -16
-243 -15 -74 1 -229 13 -275 21 -30 5 -68 12 -85 15 -16 2 -41 7 -55 10 -14 3
-36 8 -50 11 -14 3 -34 8 -45 11 -11 4 -25 8 -30 9 -6 1 -53 16 -105 34 -161
54 -447 202 -514 266 -6 6 -16 13 -22 15 -26 9 -202 166 -274 244 -74 79 -110
120 -110 127 0 4 -6 13 -12 20 -104 109 -295 478 -333 641 -3 12 -14 54 -24
93 -29 107 -50 243 -55 360 -2 28 -5 55 -9 60 -3 6 -2 16 3 23 4 8 4 27 0 42
-5 16 -6 29 -2 29 4 0 7 30 8 68 1 105 15 214 49 367 10 45 49 172 72 234 28
75 114 263 124 271 3 3 14 20 23 37 17 34 59 100 76 120 5 7 10 15 10 19 0 4
7 14 15 23 31 33 75 89 75 94 0 4 10 17 23 30 12 13 47 50 78 83 68 72 178
174 189 174 4 0 15 10 26 21 26 29 225 158 299 195 33 16 62 32 65 35 11 13
300 123 300 114 0 -2 16 3 35 11 19 8 35 12 35 9 0 -3 8 -1 18 4 9 5 31 11 47
14 177 32 206 36 330 42 50 2 92 5 95 6 3 1 9 1 14 0 4 -1 54 -4 110 -7 55 -2
112 -6 126 -9 14 -2 57 -8 95 -14 151 -23 343 -82 498 -154 40 -18 74 -33 77
-33 3 1 19 -9 37 -22 17 -12 36 -22 41 -22 6 0 17 -6 24 -12 7 -7 24 -19 38
-26 89 -46 266 -189 385 -312 39 -40 81 -82 94 -94 13 -11 31 -28 40 -37 27
-27 122 -76 181 -93 122 -35 233 -19 354 49 43 25 82 45 87 45 5 0 9 5 9 10 0
6 4 10 10 10 7 0 251 138 300 170 8 5 29 16 45 25 17 8 39 20 50 27 50 32 126
78 129 78 3 0 44 23 93 51 48 29 108 63 133 77 25 13 52 30 60 36 8 7 29 18
45 26 195 95 290 289 230 469 -18 55 -86 155 -193 286 -66 80 -75 90 -133 155
-115 128 -321 325 -419 400 -25 19 -47 37 -50 40 -3 3 -27 24 -55 45 -27 22
-52 42 -55 45 -3 3 -12 10 -21 15 -33 21 -134 90 -139 95 -3 4 -23 17 -45 30
-22 13 -42 26 -45 29 -3 4 -15 12 -27 19 -13 6 -33 18 -45 25 -13 6 -25 15
-28 18 -5 6 -53 32 -228 124 -323 170 -789 323 -1157 381 -22 3 -61 9 -120 18
-22 3 -65 9 -95 12 -30 3 -73 7 -95 10 -44 5 -581 14 -587 9z"/>
</g>
</svg>
