<?xml version="1.0" standalone="no"?>
<!DOCTYPE svg PUBLIC "-//W3C//DTD SVG 20010904//EN"
 "http://www.w3.org/TR/2001/REC-SVG-20010904/DTD/svg10.dtd">
<svg version="1.0" xmlns="http://www.w3.org/2000/svg"
 width="848.000000pt" height="848.000000pt" viewBox="0 0 848.000000 848.000000"
 preserveAspectRatio="xMidYMid meet">
<metadata>
Created by potrace 1.14, written by Peter Selinger 2001-2017
</metadata>
<g transform="translate(0.000000,848.000000) scale(0.100000,-0.100000)"
fill="#000000" stroke="none">
<path d="M3956 8189 c-284 -27 -621 -98 -892 -188 -844 -280 -1590 -846 -2059
-1563 -409 -624 -621 -1242 -676 -1968 -29 -385 22 -934 121 -1302 298 -1103
1036 -2016 2050 -2535 452 -232 974 -382 1472 -423 160 -14 541 -14 693 0
1091 95 2098 634 2780 1485 64 80 138 223 160 310 22 88 20 263 -5 361 -90
352 -397 623 -783 690 -108 19 -275 15 -407 -11 -268 -52 -576 -205 -901 -445
-234 -173 -501 -292 -804 -356 -123 -27 -144 -28 -385 -28 -238 0 -263 2 -380
26 -555 119 -986 412 -1302 886 -149 224 -244 472 -295 767 -23 139 -23 471 0
610 50 287 155 554 315 796 282 428 724 732 1225 843 176 39 300 49 512 43
220 -7 364 -32 559 -98 154 -52 246 -96 442 -207 272 -155 499 -246 735 -294
167 -34 394 -32 531 5 183 48 338 136 463 262 264 263 345 632 206 930 -50
106 -110 183 -234 301 -624 593 -1350 947 -2217 1080 -146 23 -203 26 -495 29
-181 2 -375 -1 -429 -6z"/>
</g>
</svg>
